<?xml version="1.0" encoding="utf-8"?>
<!-- Generator: Adobe Illustrator 16.0.0, SVG Export Plug-In . SVG Version: 6.00 Build 0)  -->
<!DOCTYPE svg PUBLIC "-//W3C//DTD SVG 1.1//EN" "http://www.w3.org/Graphics/SVG/1.1/DTD/svg11.dtd">
<svg version="1.1" id="Layer_1" xmlns="http://www.w3.org/2000/svg" xmlns:xlink="http://www.w3.org/1999/xlink" x="0px" y="0px"
	 width="550.929px" height="472.165px" viewBox="0 0 550.929 472.165" enable-background="new 0 0 550.929 472.165"
	 xml:space="preserve">
<polyline fill="none" stroke="#FFFFFF" stroke-width="12" stroke-miterlimit="10" points="56.445,86.437 10.492,6.01 540.553,6.397 
	496.712,84.491 "/>
<polyline fill="none" stroke="#FFFFFF" stroke-width="12" stroke-miterlimit="10" points="119.541,196.926 275.586,460.095 
	431.012,197.543 "/>
<g>
	<path fill="#FFFFFF" d="M82.473,118.636H63.882v-9.547h47.565v9.547h-18.59v49.072H82.473V118.636z"/>
	<path fill="#FFFFFF" d="M116.89,109.089h26.127c3.685,0,6.951,0.517,9.798,1.549c2.847,1.034,5.219,2.47,7.118,4.313
		c1.562,1.62,2.764,3.489,3.601,5.61c0.837,2.123,1.256,4.467,1.256,7.034v0.167c0,2.401-0.35,4.564-1.047,6.49
		c-0.699,1.926-1.662,3.629-2.889,5.108c-1.229,1.48-2.694,2.736-4.396,3.769c-1.704,1.034-3.588,1.829-5.652,2.387l15.827,22.191
		H154.49l-14.448-20.433h-0.167h-12.768v20.433H116.89V109.089z M142.227,138.147c3.695,0,6.635-0.882,8.819-2.648
		c2.184-1.767,3.276-4.164,3.276-7.191v-0.167c0-3.195-1.065-5.621-3.193-7.275s-5.124-2.481-8.988-2.481h-15.036v19.763H142.227z"
		/>
	<path fill="#FFFFFF" d="M192.759,108.67h9.546l25.792,59.038h-10.887l-5.945-14.152h-27.718l-6.03,14.152h-10.551L192.759,108.67z
		 M207.498,144.428l-10.133-23.447l-10.049,23.447H207.498z"/>
	<path fill="#FFFFFF" d="M227.679,109.089h11.389l17.669,45.053l17.585-45.053h11.139l-24.369,59.038h-9.044L227.679,109.089z"/>
	<path fill="#FFFFFF" d="M290.066,109.089h43.378v9.295h-33.162v15.074h29.394v9.295h-29.394v15.66h33.58v9.295h-43.796V109.089z"/>
	<path fill="#FFFFFF" d="M340.729,109.089h26.127c3.685,0,6.95,0.517,9.798,1.549c2.847,1.034,5.22,2.47,7.118,4.313
		c1.562,1.62,2.764,3.489,3.601,5.61c0.838,2.123,1.256,4.467,1.256,7.034v0.167c0,2.401-0.349,4.564-1.047,6.49
		c-0.698,1.926-1.661,3.629-2.889,5.108c-1.229,1.48-2.694,2.736-4.396,3.769c-1.703,1.034-3.588,1.829-5.652,2.387l15.827,22.191
		h-12.143l-14.448-20.433h-0.167h-12.769v20.433h-10.216V109.089z M366.066,138.147c3.694,0,6.635-0.882,8.818-2.648
		c2.185-1.767,3.276-4.164,3.276-7.191v-0.167c0-3.195-1.064-5.621-3.192-7.275c-2.127-1.654-5.124-2.481-8.987-2.481h-15.036
		v19.763H366.066z"/>
	<path fill="#FFFFFF" d="M416.43,168.545c-4.521,0-8.849-0.768-12.979-2.303c-4.132-1.535-7.955-3.894-11.473-7.076l6.197-7.369
		c2.847,2.457,5.722,4.341,8.625,5.652c2.902,1.312,6.197,1.968,9.882,1.968c3.182,0,5.707-0.67,7.578-2.01
		c1.87-1.34,2.806-3.126,2.806-5.359v-0.167c0-1.06-0.182-1.996-0.546-2.805c-0.363-0.809-1.036-1.577-2.015-2.303
		c-0.98-0.725-2.324-1.395-4.03-2.01c-1.708-0.613-3.932-1.227-6.675-1.842c-3.135-0.725-5.919-1.549-8.353-2.47
		c-2.436-0.921-4.478-2.037-6.129-3.35c-1.651-1.311-2.912-2.917-3.779-4.815c-0.867-1.897-1.301-4.187-1.301-6.867v-0.167
		c0-2.512,0.497-4.815,1.494-6.909c0.997-2.093,2.367-3.879,4.111-5.359c1.744-1.479,3.842-2.638,6.294-3.475
		c2.451-0.837,5.128-1.256,8.031-1.256c4.299,0,8.165,0.628,11.599,1.884c3.433,1.256,6.657,3.085,9.672,5.485l-5.527,7.788
		c-2.68-1.954-5.332-3.446-7.955-4.48c-2.625-1.032-5.275-1.549-7.955-1.549c-3.015,0-5.359,0.67-7.034,2.01
		c-1.676,1.34-2.513,2.987-2.513,4.941v0.167c0,1.117,0.195,2.108,0.588,2.973c0.391,0.866,1.104,1.647,2.141,2.345
		c1.034,0.699,2.462,1.354,4.281,1.968c1.818,0.615,4.128,1.256,6.927,1.926c3.077,0.783,5.807,1.647,8.186,2.596
		c2.379,0.95,4.351,2.108,5.918,3.475c1.567,1.369,2.757,2.959,3.568,4.773c0.812,1.814,1.218,3.922,1.218,6.322v0.167
		c0,2.736-0.513,5.192-1.537,7.369s-2.45,4.02-4.277,5.527c-1.826,1.507-4.022,2.652-6.585,3.434
		C422.316,168.154,419.5,168.545,416.43,168.545z"/>
	<path fill="#FFFFFF" d="M443.981,109.089h43.378v9.295h-33.162v15.074h29.394v9.295h-29.394v15.66h33.58v9.295h-43.796V109.089z"/>
</g>
<g>
	<path fill="#FFFFFF" d="M225.299,214.136v2.015c-1.85,1.733-3.422,3.13-4.717,4.191c-1.295,1.062-2.584,2.015-3.87,2.862
		c-1.285,0.847-2.351,1.45-3.198,1.811s-1.573,0.541-2.176,0.541c-1.441,0-2.619-0.536-3.534-1.606
		c-0.916-1.071-1.373-2.454-1.373-4.147c0-1.947,0.394-3.875,1.183-5.783s1.913-3.879,3.374-5.915
		c1.46-2.034,3.291-4.317,5.491-6.849c1.636-1.869,2.454-2.92,2.454-3.154c0-0.136-0.049-0.252-0.146-0.35
		c-0.098-0.098-0.205-0.146-0.321-0.146c-0.37,0-1.509,0.818-3.417,2.454s-4.356,4.041-7.345,7.214
		c-2.989,3.174-6.216,6.951-9.682,11.333c-0.195,0.233-0.813,1.027-1.854,2.38c-1.042,1.354-1.777,2.234-2.205,2.643
		c-0.429,0.409-0.799,0.613-1.11,0.613c-0.545,0-1.018-0.55-1.417-1.65c-0.399-1.1-0.599-2.273-0.599-3.519
		c0-0.759,0.248-1.577,0.745-2.454c0.497-0.876,1.577-2.448,3.242-4.717c1.665-2.268,3.042-4.181,4.133-5.739
		c1.09-1.557,2.288-3.446,3.593-5.666c0.915-1.538,1.591-2.765,2.03-3.68c0.438-0.915,0.657-1.723,0.657-2.424
		c0-0.604-0.175-0.905-0.526-0.905c-0.74,0-2.132,0.988-4.177,2.964c-2.044,1.977-4.571,4.912-7.579,8.806
		c-3.008,3.895-6.148,8.402-9.419,13.523c-1.071,1.752-1.831,2.931-2.278,3.534c-0.448,0.604-0.944,0.905-1.489,0.905
		c-0.682,0-1.319-0.725-1.913-2.176c-0.594-1.45-0.891-2.624-0.891-3.519c0-0.292,0.117-0.614,0.351-0.964
		c2.57-3.427,4.683-6.338,6.338-8.733c1.655-2.395,3.125-4.668,4.41-6.82c1.285-2.151,2.22-3.923,2.804-5.315
		c0.584-1.392,0.876-2.487,0.876-3.286c0-0.837-0.38-1.256-1.139-1.256c-0.624,0-1.685,0.399-3.184,1.198
		c-1.5,0.798-3.393,1.889-5.681,3.271c-2.288,1.383-4.123,2.439-5.505,3.169c-1.383,0.73-2.414,1.095-3.096,1.095
		c-0.643,0-0.964-0.36-0.964-1.081c0-0.409,0.136-1.348,0.409-2.818c0.273-1.47,0.555-2.507,0.847-3.111
		c0.409-0.778,1.455-1.811,3.14-3.096c1.684-1.285,2.614-1.928,2.789-1.928c0.156,0,0.234,0.068,0.234,0.205
		c0,0.078-0.078,0.195-0.234,0.351c-0.798,0.643-1.392,1.168-1.782,1.577c-0.39,0.409-0.633,0.857-0.73,1.343
		c3.563-2.142,6.751-3.772,9.565-4.892c2.813-1.119,4.765-1.679,5.856-1.679c0.544,0,1.061,0.365,1.548,1.095
		c0.486,0.73,0.9,1.577,1.241,2.541c0.34,0.964,0.511,1.582,0.511,1.854c0,0.993-0.253,2.167-0.76,3.52
		c-0.506,1.354-1.193,2.926-2.059,4.717c-0.866,1.792-1.942,4.03-3.227,6.717c1.012-1.304,1.976-2.512,2.892-3.622
		c0.915-1.11,1.825-2.19,2.73-3.242c0.906-1.051,1.826-2.112,2.76-3.184c1.266-1.46,2.687-2.857,4.264-4.191
		s3.052-2.424,4.425-3.271c1.373-0.847,2.302-1.271,2.789-1.271c0.682,0,1.29,0.375,1.826,1.125c0.535,0.75,0.803,1.553,0.803,2.41
		c0,0.565-0.37,1.646-1.11,3.242c-0.74,1.597-1.821,3.642-3.242,6.134s-3.3,5.705-5.637,9.638c2.22-2.356,4.527-4.78,6.922-7.272
		s4.177-4.312,5.345-5.462c1.168-1.148,2.142-2.025,2.921-2.628c1.07-0.818,2.146-1.699,3.227-2.643
		c1.081-0.944,1.933-1.689,2.556-2.234c0.623-0.545,1.178-0.964,1.665-1.256c0.486-0.292,0.935-0.438,1.343-0.438
		c0.506,0,1.144,0.584,1.913,1.752c0.769,1.168,1.154,1.918,1.154,2.249c0,0.409-0.229,0.896-0.687,1.46
		c-0.458,0.565-1.407,1.616-2.848,3.154c-2.648,2.843-4.946,5.71-6.893,8.601c-1.947,2.892-3.422,5.53-4.425,7.915
		c-1.003,2.386-1.504,4.27-1.504,5.652c0,0.857,0.161,1.48,0.482,1.869c0.321,0.39,0.822,0.584,1.504,0.584
		c0.623,0,1.202-0.117,1.738-0.351c0.535-0.233,1.129-0.564,1.781-0.993s1.271-0.837,1.855-1.227
		c0.817-0.486,1.621-1.007,2.409-1.562c0.789-0.555,1.402-0.993,1.84-1.314S225.084,214.272,225.299,214.136z"/>
	<path fill="#FFFFFF" d="M243.874,214.195v1.957c-1.285,1.168-2.317,1.947-3.096,2.336c-0.779,0.39-1.898,0.545-3.359,0.467
		c-2.531,2.999-4.761,4.498-6.688,4.498c-1.09,0-2.083-0.36-2.979-1.081c-0.896-0.72-1.611-1.704-2.146-2.95
		c-0.536-1.246-0.803-2.638-0.803-4.176c0-1.246,0.414-2.628,1.241-4.147c0.827-1.519,1.898-2.935,3.213-4.25
		c1.314-1.314,2.721-2.375,4.22-3.184c1.499-0.808,2.892-1.212,4.177-1.212c0.915,0,1.635,0.142,2.161,0.423
		c0.526,0.283,0.789,0.677,0.789,1.183c0,0.39-0.224,0.837-0.672,1.343c0.74,0.156,1.246,0.414,1.519,0.774
		c0.272,0.361,0.409,1.018,0.409,1.972c0,0.935-0.219,2.113-0.657,3.534c-0.438,1.422-1.037,2.756-1.796,4.001l0.525,0.526h0.438
		c0.331,0,0.657-0.083,0.979-0.249c0.321-0.165,0.608-0.34,0.862-0.525C242.462,215.251,243.017,214.837,243.874,214.195z
		 M237.857,206.513c-1.616,0.974-2.999,1.854-4.147,2.643c-1.149,0.789-2.123,1.587-2.921,2.395
		c-0.799,0.808-1.334,1.621-1.606,2.439c-0.487,2.181-0.73,3.359-0.73,3.534c0,1.285,0.896,1.927,2.687,1.927
		c0.837,0,2.239-0.72,4.206-2.161c-0.331-0.915-0.497-1.791-0.497-2.628c0-1.227,0.253-2.478,0.76-3.753
		C236.115,209.634,236.865,208.168,237.857,206.513z"/>
	<path fill="#FFFFFF" d="M257.572,212.267c-2.823,3.738-4.97,6.396-6.44,7.973c-1.471,1.577-2.672,2.366-3.607,2.366
		c-0.74,0-1.422-0.307-2.044-0.92c-0.624-0.613-1.105-1.44-1.446-2.482c-0.341-1.042-0.511-2.156-0.511-3.344
		c0-0.778,0.073-1.479,0.219-2.103c0.146-0.623,0.423-1.309,0.832-2.059c0.409-0.749,0.949-1.562,1.621-2.438
		c0.672-0.876,1.494-1.869,2.468-2.979c0.584-0.682,1.076-1.256,1.475-1.723c0.399-0.468,0.789-0.784,1.168-0.949
		c0.379-0.166,0.998-0.249,1.854-0.249c0.623,0,1.217,0.083,1.782,0.249c0.564,0.166,0.847,0.335,0.847,0.511
		c0,0.351-0.288,0.983-0.861,1.898c-0.575,0.916-1.5,2.03-2.775,3.344s-2.75,2.604-4.425,3.87c-0.37,1.149-0.555,2.025-0.555,2.628
		c0,0.837,0.321,1.256,0.964,1.256c0.233,0,0.623-0.199,1.168-0.599c0.545-0.399,1.465-1.168,2.76-2.308
		c1.294-1.139,2.458-2.146,3.49-3.022c0.759-0.662,1.64-1.65,2.643-2.965c1.002-1.314,1.815-2.302,2.439-2.964
		c1.44-1.519,2.424-2.507,2.95-2.964s1.032-0.687,1.519-0.687c0.467,0,0.784,0.146,0.949,0.438c0.166,0.292,0.249,0.886,0.249,1.782
		c0,0.409-0.04,0.74-0.117,0.993c-0.078,0.253-0.239,0.58-0.482,0.979c-0.244,0.399-0.735,1.134-1.475,2.205
		c-0.74,1.071-1.616,2.336-2.628,3.797c-0.545,0.779-1.022,1.631-1.431,2.556c-0.409,0.925-0.614,1.621-0.614,2.088
		c0,1.013,0.399,1.519,1.198,1.519c0.662,0,1.431-0.272,2.307-0.818c0.876-0.545,2.22-1.528,4.031-2.95v1.957
		c-2.278,2.103-3.962,3.632-5.053,4.585c-1.091,0.954-2.035,1.675-2.833,2.162c-0.799,0.487-1.558,0.73-2.278,0.73
		c-1.636,0-2.453-0.974-2.453-2.921c0-0.74,0.243-1.738,0.73-2.994C255.693,216.458,256.481,214.643,257.572,212.267z"/>
	<path fill="#FFFFFF" d="M286.516,208.967c-3.427,3.816-5.14,6.474-5.14,7.973c0,0.837,0.34,1.256,1.021,1.256
		c0.564,0,1.3-0.296,2.205-0.891c0.905-0.594,2.322-1.65,4.25-3.169v2.015c-2.766,2.727-4.888,4.693-6.367,5.9
		c-1.479,1.208-2.687,1.811-3.622,1.811c-1.597,0-2.395-1.051-2.395-3.154c0-0.623,0.098-1.236,0.292-1.84s0.462-1.231,0.804-1.884
		c0.34-0.652,0.861-1.587,1.562-2.804c0.7-1.217,1.509-2.595,2.424-4.133c-1.11,0.565-2.502,1.684-4.177,3.359
		c-1.091,1.051-2.015,2.049-2.774,2.994s-1.572,1.996-2.438,3.154c-0.867,1.159-1.5,1.938-1.898,2.336
		c-0.399,0.399-0.804,0.599-1.212,0.599c-0.624,0-1.198-0.652-1.724-1.957c-0.526-1.304-0.789-2.823-0.789-4.556
		c0-1.07,0.121-1.908,0.365-2.512c0.243-0.603,0.725-1.46,1.445-2.57c1.343-2.063,2.501-3.578,3.476-4.542
		c0.973-0.964,1.908-1.446,2.804-1.446c0.623,0,1.124,0.107,1.504,0.321c0.38,0.215,0.569,0.545,0.569,0.993
		c0,0.195-0.059,0.399-0.175,0.613c-0.117,0.214-0.248,0.409-0.395,0.584c-0.146,0.175-0.452,0.516-0.92,1.022
		c-3.077,3.408-4.614,5.618-4.614,6.63c0,0.565,0.185,0.847,0.555,0.847c0.233,0,0.687-0.375,1.358-1.125
		c0.671-0.75,1.537-1.733,2.599-2.95c1.062-1.216,2.317-2.487,3.768-3.811c1.451-1.324,3.101-2.6,4.951-3.826
		c1.031-0.72,1.888-1.081,2.57-1.081c0.311,0,0.617,0.428,0.92,1.285c0.302,0.857,0.452,1.724,0.452,2.6
		C287.771,207.438,287.353,208.09,286.516,208.967z"/>
	<path fill="#FFFFFF" d="M298.929,199.095h1.256c1.032-1.85,1.967-3.159,2.804-3.928c0.837-0.769,1.791-1.154,2.862-1.154
		s1.606,0.244,1.606,0.73c0,0.233-0.419,0.866-1.256,1.898s-1.471,1.898-1.898,2.599c0.662,0.078,1.251,0.146,1.768,0.205
		c0.516,0.058,0.92,0.107,1.212,0.146c-1.11,2.064-2.503,4.177-4.177,6.338c-0.546-0.039-1.003-0.073-1.373-0.103
		c-0.37-0.029-0.744-0.058-1.124-0.087s-0.843-0.063-1.388-0.102c-1.051,1.694-1.933,3.208-2.643,4.542
		c-0.712,1.334-1.256,2.556-1.636,3.666s-0.569,2.161-0.569,3.154c0,1.343,0.535,2.015,1.605,2.015c0.74,0,1.709-0.394,2.906-1.183
		s2.799-2.001,4.805-3.636v1.957c-5.257,5.706-9.142,8.558-11.653,8.558c-0.876,0-1.582-0.341-2.117-1.022
		c-0.536-0.682-0.804-1.558-0.804-2.629c0-0.72,0.15-1.577,0.453-2.57c0.302-0.993,0.842-2.492,1.621-4.498
		c-0.273,0.233-0.531,0.463-0.774,0.687c-0.244,0.224-0.467,0.428-0.672,0.613c-0.204,0.185-0.424,0.379-0.657,0.584
		s-0.467,0.414-0.701,0.628v-2.015c2.045-1.713,4.518-4.722,7.419-9.025c-0.292-0.019-0.565-0.034-0.817-0.044
		c-0.254-0.01-0.556-0.015-0.906-0.015c-1.148,0-2.005,0.078-2.569,0.234c-0.234,0.058-0.453,0.122-0.657,0.189
		c-0.205,0.069-0.347,0.103-0.424,0.103c-0.078,0-0.117-0.059-0.117-0.175c0-0.643,0.399-1.606,1.198-2.892
		c0.643-1.09,1.25-1.898,1.825-2.424c0.574-0.526,1.274-0.881,2.103-1.066C296.266,199.188,297.43,199.095,298.929,199.095z"/>
	<path fill="#FFFFFF" d="M307.049,209.025c2.959-2.687,5.831-4.683,8.615-5.987c2.785-1.304,4.937-1.957,6.455-1.957
		c0.409,0,0.789,0.17,1.139,0.511c0.351,0.341,0.628,0.735,0.833,1.183c0.204,0.448,0.307,0.779,0.307,0.993
		c0,0.35-0.137,0.608-0.409,0.774s-0.75,0.365-1.431,0.599c0.136,0.312,0.311,0.711,0.525,1.197c0.214,0.487,0.38,0.881,0.496,1.183
		c0.117,0.302,0.176,0.569,0.176,0.803c0,0.467-0.473,1.339-1.417,2.614c-0.944,1.275-1.606,2.215-1.985,2.818
		c-0.38,0.604-0.57,1.344-0.57,2.22c0,1.441,0.662,2.162,1.986,2.162c1.363,0,3.495-1.275,6.396-3.826v1.782
		c-4.927,5.472-8.451,8.207-10.573,8.207c-0.759,0-1.3-0.249-1.621-0.745c-0.32-0.497-0.481-1.231-0.481-2.205
		c0-1.538,0.555-3.768,1.665-6.688c-2.844,3.154-4.956,5.398-6.338,6.732c-1.383,1.334-2.522,2-3.417,2
		c-0.429,0-0.964-0.37-1.606-1.11c-0.643-0.74-1.212-1.698-1.709-2.876c-0.496-1.178-0.745-2.4-0.745-3.666
		c0-0.915,0.088-1.68,0.264-2.293c0.175-0.613,0.516-1.241,1.021-1.884C305.131,210.923,305.938,210.077,307.049,209.025z
		 M321.038,205.812c-5.062,2.317-8.669,4.284-10.82,5.899c-2.152,1.617-3.228,3.281-3.228,4.995c0,0.623,0.106,1.134,0.321,1.533
		c0.214,0.399,0.506,0.599,0.876,0.599c0.214,0,0.594-0.136,1.14-0.409c2.044-1.207,3.913-2.779,5.607-4.717
		C316.628,211.775,318.663,209.142,321.038,205.812z"/>
	<path fill="#FFFFFF" d="M341.862,214.253v2.132c-1.889,2.434-3.65,4.269-5.286,5.505c-1.636,1.237-3.027,1.854-4.177,1.854
		c-1.597,0-2.784-0.837-3.562-2.512c-0.779-1.674-1.169-3.505-1.169-5.491c0-0.759,0.078-1.485,0.234-2.176
		c0.155-0.691,0.34-1.261,0.555-1.709c0.214-0.448,0.613-1.148,1.197-2.103c2.765-4.303,5.296-6.455,7.594-6.455
		c1.188,0,1.781,0.458,1.781,1.373c0,0.623-0.385,1.597-1.153,2.92c-0.77,1.325-1.456,2.269-2.06,2.833
		c-1.693,1.636-2.799,2.775-3.314,3.417c-0.517,0.643-0.774,1.373-0.774,2.19c0,0.701,0.264,1.285,0.789,1.752
		s1.207,0.701,2.044,0.701c0.915,0,1.923-0.335,3.023-1.007C338.684,216.809,340.11,215.733,341.862,214.253z M339.877,201.198
		c-0.487,0-0.949-0.185-1.388-0.555c-0.438-0.37-0.657-0.837-0.657-1.402c0-0.856,0.409-1.811,1.227-2.862
		c0.818-1.051,1.665-1.577,2.541-1.577c0.584,0,1.071,0.18,1.461,0.541c0.389,0.36,0.584,0.881,0.584,1.562
		c0,0.837-0.399,1.762-1.197,2.774C341.648,200.691,340.792,201.198,339.877,201.198z"/>
	<path fill="#FFFFFF" d="M361.285,208.967c-3.427,3.816-5.14,6.474-5.14,7.973c0,0.837,0.34,1.256,1.021,1.256
		c0.564,0,1.3-0.296,2.205-0.891c0.905-0.594,2.322-1.65,4.25-3.169v2.015c-2.766,2.727-4.888,4.693-6.367,5.9
		c-1.479,1.208-2.687,1.811-3.622,1.811c-1.597,0-2.395-1.051-2.395-3.154c0-0.623,0.098-1.236,0.292-1.84s0.462-1.231,0.804-1.884
		c0.34-0.652,0.861-1.587,1.562-2.804c0.7-1.217,1.509-2.595,2.424-4.133c-1.11,0.565-2.502,1.684-4.177,3.359
		c-1.091,1.051-2.015,2.049-2.774,2.994s-1.572,1.996-2.438,3.154c-0.867,1.159-1.5,1.938-1.898,2.336
		c-0.399,0.399-0.804,0.599-1.212,0.599c-0.624,0-1.198-0.652-1.724-1.957c-0.525-1.304-0.789-2.823-0.789-4.556
		c0-1.07,0.122-1.908,0.365-2.512c0.243-0.603,0.726-1.46,1.446-2.57c1.343-2.063,2.501-3.578,3.476-4.542
		c0.973-0.964,1.908-1.446,2.804-1.446c0.623,0,1.124,0.107,1.504,0.321c0.38,0.215,0.569,0.545,0.569,0.993
		c0,0.195-0.059,0.399-0.175,0.613c-0.117,0.214-0.248,0.409-0.395,0.584c-0.146,0.175-0.452,0.516-0.92,1.022
		c-3.077,3.408-4.614,5.618-4.614,6.63c0,0.565,0.185,0.847,0.555,0.847c0.233,0,0.687-0.375,1.358-1.125
		c0.671-0.75,1.537-1.733,2.599-2.95c1.062-1.216,2.317-2.487,3.768-3.811c1.451-1.324,3.101-2.6,4.951-3.826
		c1.031-0.72,1.888-1.081,2.57-1.081c0.311,0,0.617,0.428,0.92,1.285c0.302,0.857,0.452,1.724,0.452,2.6
		C362.541,207.438,362.122,208.09,361.285,208.967z"/>
</g>
<g>
	<path fill="#FFFFFF" d="M239.896,237.976v5.83h3.721v2.604h-3.721v13.788c0,0.455,0.059,0.838,0.176,1.147
		c0.117,0.311,0.275,0.559,0.476,0.745c0.2,0.186,0.438,0.316,0.713,0.393c0.275,0.075,0.572,0.113,0.889,0.113
		c0.386,0,0.786-0.038,1.199-0.113c0.414-0.076,0.771-0.148,1.075-0.218v2.502c-0.358,0.109-0.824,0.22-1.396,0.33
		s-1.161,0.166-1.767,0.166c-0.524,0-1.051-0.072-1.582-0.217s-1.006-0.376-1.426-0.693c-0.42-0.316-0.762-0.727-1.023-1.229
		c-0.262-0.503-0.393-1.12-0.393-1.85V246.41h-3.225v-2.604h3.225v-5.83H239.896z"/>
	<path fill="#FFFFFF" d="M248.64,243.806h3.06l-0.124,3.494c0.648-1.145,1.409-2.02,2.284-2.626c0.875-0.605,1.898-0.91,3.07-0.91
		c0.096,0,0.23,0.007,0.403,0.021c0.172,0.015,0.351,0.031,0.537,0.052c0.186,0.021,0.365,0.049,0.538,0.083
		c0.172,0.035,0.307,0.071,0.403,0.113v3.122c-0.317-0.11-0.676-0.195-1.075-0.258c-0.4-0.062-0.696-0.094-0.889-0.094
		c-0.813,0-1.537,0.152-2.171,0.455c-0.634,0.304-1.171,0.713-1.612,1.23c-0.441,0.517-0.779,1.109-1.013,1.777
		c-0.235,0.669-0.352,1.367-0.352,2.099v12.485h-3.06V243.806z"/>
	<path fill="#FFFFFF" d="M279.38,265.016c-0.192,0.069-0.444,0.127-0.754,0.176c-0.31,0.048-0.569,0.072-0.775,0.072
		c-0.854,0-1.574-0.328-2.16-0.982s-0.913-1.656-0.982-3.007c-0.661,0.854-1.312,1.544-1.953,2.067
		c-0.642,0.523-1.279,0.927-1.913,1.209s-1.271,0.472-1.911,0.567c-0.641,0.098-1.292,0.146-1.954,0.146
		c-0.854,0-1.653-0.138-2.397-0.414c-0.745-0.275-1.396-0.668-1.954-1.178c-0.558-0.509-0.996-1.123-1.313-1.84
		s-0.475-1.516-0.475-2.398c0-0.881,0.192-1.637,0.579-2.264c0.386-0.626,0.899-1.168,1.54-1.623
		c0.641-0.454,1.364-0.837,2.17-1.146s1.633-0.586,2.481-0.827s1.678-0.472,2.491-0.692c0.813-0.22,1.541-0.465,2.181-0.734
		c0.641-0.269,1.153-0.578,1.54-0.931c0.386-0.352,0.579-0.788,0.579-1.312c0-0.606-0.118-1.145-0.352-1.613
		c-0.234-0.468-0.564-0.863-0.992-1.188s-0.943-0.57-1.551-0.734c-0.606-0.165-1.274-0.248-2.005-0.248
		c-0.62,0-1.206,0.079-1.757,0.237c-0.552,0.159-1.048,0.391-1.488,0.693c-0.441,0.304-0.807,0.675-1.096,1.116
		c-0.29,0.44-0.476,0.95-0.558,1.529h-3.204c0.069-1.021,0.344-1.922,0.827-2.708c0.482-0.785,1.096-1.443,1.84-1.975
		c0.745-0.53,1.588-0.934,2.533-1.209c0.944-0.276,1.912-0.414,2.904-0.414c1.075,0,2.091,0.133,3.049,0.393
		c0.958,0.264,1.803,0.663,2.532,1.199c0.731,0.538,1.309,1.217,1.736,2.037c0.428,0.819,0.642,1.781,0.642,2.884v10.895
		c0,0.536,0.134,0.968,0.403,1.292c0.269,0.324,0.603,0.484,1.002,0.484c0.179,0,0.352-0.026,0.517-0.081V265.016z M274.398,253.149
		c-0.428,0.455-0.982,0.831-1.664,1.126c-0.682,0.297-1.413,0.562-2.191,0.796c-0.779,0.235-1.561,0.463-2.346,0.684
		c-0.786,0.22-1.499,0.481-2.14,0.785c-0.641,0.304-1.162,0.671-1.562,1.105s-0.599,0.982-0.599,1.644
		c0,0.594,0.103,1.097,0.31,1.51s0.476,0.754,0.807,1.022c0.331,0.27,0.709,0.465,1.137,0.59c0.427,0.124,0.86,0.186,1.302,0.186
		c1.269,0,2.513-0.386,3.732-1.157s2.29-1.957,3.214-3.556V253.149z"/>
	<path fill="#FFFFFF" d="M286.719,235.867v3.576h-3.059v-3.576H286.719z M286.719,243.806v21.044h-3.059v-21.044H286.719z"/>
	<path fill="#FFFFFF" d="M296.001,235.867v28.982h-3.06v-28.982H296.001z"/>
	<path fill="#FFFFFF" d="M303.381,258.441c0.014,0.758,0.146,1.399,0.394,1.923c0.247,0.523,0.585,0.95,1.013,1.282
		c0.427,0.33,0.927,0.571,1.499,0.723c0.571,0.152,1.202,0.228,1.891,0.228c0.552,0,1.134-0.052,1.747-0.154
		c0.613-0.104,1.176-0.28,1.685-0.527c0.511-0.248,0.931-0.582,1.261-1.004c0.331-0.42,0.497-0.953,0.497-1.602
		c0-0.592-0.179-1.095-0.538-1.509c-0.357-0.413-0.827-0.778-1.405-1.096c-0.579-0.316-1.24-0.604-1.985-0.858
		c-0.744-0.254-1.502-0.52-2.273-0.796c-0.772-0.274-1.53-0.575-2.274-0.899c-0.743-0.322-1.404-0.713-1.984-1.168
		c-0.579-0.454-1.047-0.991-1.405-1.612c-0.358-0.619-0.537-1.364-0.537-2.232c0-0.909,0.199-1.722,0.599-2.439
		c0.399-0.715,0.934-1.319,1.603-1.81c0.668-0.488,1.437-0.86,2.305-1.115c0.869-0.256,1.771-0.383,2.708-0.383
		c1.062,0,2.048,0.127,2.956,0.383c0.91,0.255,1.706,0.634,2.389,1.137c0.682,0.504,1.226,1.13,1.633,1.882
		c0.406,0.751,0.63,1.616,0.672,2.595h-3.142c-0.07-0.551-0.232-1.034-0.486-1.448c-0.255-0.413-0.586-0.754-0.993-1.022
		c-0.406-0.27-0.868-0.469-1.384-0.6c-0.518-0.131-1.065-0.196-1.645-0.196c-0.676,0-1.271,0.083-1.787,0.248
		c-0.518,0.164-0.951,0.39-1.303,0.672c-0.352,0.283-0.617,0.609-0.796,0.981c-0.18,0.372-0.27,0.758-0.27,1.157
		c0,0.538,0.179,1.007,0.538,1.406c0.357,0.4,0.827,0.759,1.406,1.074c0.578,0.317,1.24,0.606,1.984,0.869
		c0.743,0.262,1.502,0.535,2.274,0.816c0.771,0.282,1.529,0.589,2.273,0.92c0.743,0.33,1.405,0.714,1.983,1.146
		c0.58,0.435,1.048,0.941,1.406,1.521c0.358,0.578,0.538,1.261,0.538,2.047c0,1.13-0.225,2.092-0.673,2.883
		c-0.447,0.794-1.051,1.44-1.808,1.943c-0.758,0.504-1.637,0.872-2.636,1.106c-1,0.234-2.044,0.352-3.133,0.352
		c-1.062,0-2.067-0.142-3.018-0.424c-0.951-0.282-1.785-0.706-2.501-1.271c-0.717-0.565-1.292-1.274-1.727-2.129
		c-0.434-0.854-0.673-1.854-0.714-2.998H303.381z"/>
</g>
<line fill="none" stroke="#FFFFFF" stroke-width="3" stroke-miterlimit="10" x1="275.203" y1="371.083" x2="275.203" y2="286.683"/>
<polyline fill="none" stroke="#FFFFFF" stroke-width="3" stroke-miterlimit="10" points="262.578,301.965 274.538,283.355 
	287.164,301.301 "/>
<line fill="none" stroke="#FFFFFF" stroke-width="3" stroke-miterlimit="10" x1="275.203" y1="289.338" x2="275.203" y2="373.747"/>
<polyline fill="none" stroke="#FFFFFF" stroke-width="3" stroke-miterlimit="10" points="287.828,358.458 275.867,377.068 
	263.241,359.123 "/>
<polyline fill="none" stroke="#FFFFFF" stroke-width="3" stroke-miterlimit="10" points="285.836,342.512 275.169,356.467 
	263.905,343.006 "/>
<polyline fill="none" stroke="#FFFFFF" stroke-width="3" stroke-miterlimit="10" points="263.91,314.59 274.58,300.629 
	285.84,314.089 "/>
<path fill="#FFFFFF" d="M140.182,88.642c0,0,4.934-5.801,16.828-9.862c0,0,3.185-5.219,12.761-1.45c0,0,8.41-12.47,13.92-4.35
	c0,0,1.451,4.932,6.093,1.45c0,0,7.251-18.276,18.854-6.382c0,0,6.092,0.871,7.542-0.29l10.729-5.801c0,0,1.741-9.573,12.185-3.771
	c0,0,4.06,3.481,9.861,0.582c0,0,12.471-3.48,16.822-8.413l13.926-12.763c0,0,6.96-5.512,8.119-5.222c0,0,5.218,2.035,10.735,7.543
	c0,0,10.728,9.569,12.761,9.86c0,0,3.191,3.774,6.96,1.742c0,0-1.45-6.961,10.734,2.03c0,0,11.888,8.703,11.312,12.184
	c0,0,14.503-5.511,18.562-2.321c0,0,5.218,2.321,5.51,8.412c0,0-0.576,2.901,7.543,2.611c0,0,0.874-2.614,13.053,8.12
	c0,0,3.192,4.352,6.961,4.642c0,0,2.608-0.002,4.06,2.319c0,0-4.352,2.611-10.153-0.29c0,0-4.928-5.801-10.727-4.64
	c0,0-13.062,6.382-17.987,1.45c0,0,3.775-4.062,8.993-3.481c0,0,4.06-1.449-1.16-2.608c0,0-4.058-2.9-13.634-4.061
	c0,0-1.451-1.74-13.629-1.161c0,0-8.418,3.478-8.994,4.929c0,0-4.066,9.864-4.066,1.743c0,0,2.908-10.441,11.895-12.473
	c0,0-6.669-0.869-5.802-3.19c0,0-0.284-5.222-6.961-6.382c0,0-5.509,3.19-9.859-2.611c0,0-17.694,1.161-15.37-5.802
	c0,0-5.518-6.38-11.603-6.091c0,0-3.483,9.862-3.483,14.213c0,0-2.61,0.29-6.093,8.412c0,0-9.861,5.219-11.602,10.73
	c0,0,3.483-11.02,8.417-13.63c0,0,4.059-7.541,5.219-8.702c0,0-1.741-6.672,0.291-9.862c0,0-7.543,4.061-9.285,7.251
	c0,0-4.351,4.643-7.251,5.512c-2.901,0.869-1.16,0.289-1.16,0.289s-2.608,6.382-7.251,8.412c0,0-0.291-3.19,1.743-7.542
	c0,0-6.093,5.51-15.378,4.931c0,0-5.509-1.453-9.569,2.029c0,0-9.277,4.063-11.02,7.254c0,0-4.352,2.607,2.026,5.508
	c0,0,13.636-2.608,15.954,2.031c0,0-0.868,2.898,5.224,2.319c0,0,7.537-0.87,6.669,2.031l3.192,2.32h-11.602
	c0,0-5.517,0.582-5.801-3.77c0,0-9.284,4.64-16.244-0.872c0,0-5.51-2.032-9.278-1.45c0,0-9.576-7.829-9.284-10.44
	c0,0-2.901-0.29-4.934,4.062c0,0-5.503,9.282-10.146,8.7c0,0-6.675-4.062-10.158-3.771c0,0-11.02-0.292-13.339,4.64
	C162.811,85.449,145.401,86.901,140.182,88.642z"/>
</svg>
